<svg xmlns="http://www.w3.org/2000/svg" width="315.94" height="315.94" viewBox="0 0 315.935 315.935"><path d="m0 0l-78.72 78.72 78.55 78.55-29.06 29.06-78.55-78.55-78.72 78.71-29.06-29.06 78.72-78.71-78.55-78.55 29.06-29.06 78.55 78.55 78.72-78.71 29.06 29.06" fill="#fff" transform="matrix(1.25 0 0-1.25 292.69 256.36)"/><path d="m0 0l-7.07-7.07-84.73 84.73-84.73-84.73-7.07 7.07 84.73 84.73-84.73 84.73 7.07 7.07 84.73-84.73 84.73 84.73 7.07-7.07-84.73-84.73 84.73-84.73m34.571 161.95l-49.16 49.16-77.22-77.22-77.22 77.22-49.16-49.16 77.22-77.22-77.22-77.22 49.16-49.16 77.22 77.22 77.22-77.22 49.16 49.16-77.22 77.22 77.22 77.22z" transform="matrix(1.25 0 0-1.25 272.72 263.88)"/></svg>